<svg xmlns="http://www.w3.org/2000/svg" viewBox="0 0 265.08 265.08"><g class="outer" style="opacity:0.1"><g><circle cx="132.54" cy="132.54" r="126.54" style="fill:none;stroke:#ffffff;stroke-miterlimit:10"></circle><polygon points="158.397 2.547 159.283 5.782 160.169 9.017 157.227 8.431 154.284 7.846 156.341 5.196 158.397 2.547" style="fill:#fff"></polygon><polygon points="183.261 10.089 183.499 13.435 183.736 16.78 180.965 15.632 178.193 14.484 180.727 12.287 183.261 10.089" style="fill:#fff"></polygon><polygon points="206.175 22.337 205.756 25.665 205.336 28.993 202.842 27.326 200.347 25.659 203.261 23.998 206.175 22.337" style="fill:#fff"></polygon><polygon points="226.26 38.82 225.199 42.002 224.139 45.184 222.017 43.063 219.896 40.941 223.078 39.881 226.26 38.82" style="fill:#fff"></polygon><polygon points="242.743 58.905 241.082 61.819 239.421 64.733 237.754 62.238 236.087 59.744 239.415 59.324 242.743 58.905" style="fill:#fff"></polygon><polygon points="254.991 81.819 252.793 84.353 250.596 86.887 249.448 84.115 248.3 81.344 251.645 81.581 254.991 81.819" style="fill:#fff"></polygon><polygon points="262.533 106.683 259.884 108.739 257.234 110.796 256.649 107.853 256.063 104.911 259.298 105.797 262.533 106.683" style="fill:#fff"></polygon><polygon points="265.08 132.54 262.08 134.04 259.08 135.54 259.08 132.54 259.08 129.54 262.08 131.04 265.08 132.54" style="fill:#fff"></polygon><polygon points="262.533 158.397 259.298 159.283 256.063 160.169 256.649 157.227 257.234 154.284 259.884 156.341 262.533 158.397" style="fill:#fff"></polygon><polygon points="254.991 183.261 251.645 183.499 248.3 183.736 249.448 180.965 250.596 178.193 252.793 180.727 254.991 183.261" style="fill:#fff"></polygon><polygon points="242.743 206.175 239.415 205.756 236.087 205.336 237.754 202.842 239.421 200.347 241.082 203.261 242.743 206.175" style="fill:#fff"></polygon><polygon points="226.26 226.26 223.078 225.199 219.896 224.139 222.017 222.017 224.139 219.896 225.199 223.078 226.26 226.26" style="fill:#fff"></polygon><polygon points="206.175 242.743 203.261 241.082 200.347 239.421 202.842 237.754 205.336 236.087 205.756 239.415 206.175 242.743" style="fill:#fff"></polygon><polygon points="183.261 254.991 180.727 252.793 178.193 250.596 180.965 249.448 183.736 248.3 183.499 251.645 183.261 254.991" style="fill:#fff"></polygon><polygon points="158.397 262.533 156.341 259.884 154.284 257.234 157.227 256.649 160.169 256.063 159.283 259.298 158.397 262.533" style="fill:#fff"></polygon><polygon points="132.54 265.08 131.04 262.08 129.54 259.08 132.54 259.08 135.54 259.08 134.04 262.08 132.54 265.08" style="fill:#fff"></polygon><polygon points="106.683 262.533 105.797 259.298 104.911 256.063 107.853 256.649 110.796 257.234 108.739 259.884 106.683 262.533" style="fill:#fff"></polygon><polygon points="81.819 254.991 81.581 251.645 81.344 248.3 84.115 249.448 86.887 250.596 84.353 252.793 81.819 254.991" style="fill:#fff"></polygon><polygon points="58.905 242.743 59.324 239.415 59.744 236.087 62.238 237.754 64.733 239.421 61.819 241.082 58.905 242.743" style="fill:#fff"></polygon><polygon points="38.82 226.26 39.881 223.078 40.941 219.896 43.063 222.017 45.184 224.139 42.002 225.199 38.82 226.26" style="fill:#fff"></polygon><polygon points="22.337 206.175 23.998 203.261 25.659 200.347 27.326 202.842 28.993 205.336 25.665 205.756 22.337 206.175" style="fill:#fff"></polygon><polygon points="10.089 183.261 12.287 180.727 14.484 178.193 15.632 180.965 16.78 183.736 13.435 183.499 10.089 183.261" style="fill:#fff"></polygon><polygon points="2.547 158.397 5.196 156.341 7.846 154.284 8.431 157.227 9.017 160.169 5.782 159.283 2.547 158.397" style="fill:#fff"></polygon><polygon points="0 132.54 3 131.04 6 129.54 6 132.54 6 135.54 3 134.04 0 132.54" style="fill:#fff"></polygon><polygon points="2.547 106.683 5.782 105.797 9.017 104.911 8.431 107.853 7.846 110.796 5.196 108.739 2.547 106.683" style="fill:#fff"></polygon><polygon points="10.089 81.819 13.435 81.581 16.78 81.344 15.632 84.115 14.484 86.887 12.287 84.353 10.089 81.819" style="fill:#fff"></polygon><polygon points="22.337 58.905 25.665 59.324 28.993 59.744 27.326 62.238 25.659 64.733 23.998 61.819 22.337 58.905" style="fill:#fff"></polygon><polygon points="38.82 38.82 42.002 39.881 45.184 40.941 43.063 43.063 40.941 45.184 39.881 42.002 38.82 38.82" style="fill:#fff"></polygon><polygon points="58.905 22.337 61.819 23.998 64.733 25.659 62.238 27.326 59.744 28.993 59.324 25.665 58.905 22.337" style="fill:#fff"></polygon><polygon points="81.819 10.089 84.353 12.287 86.887 14.484 84.115 15.632 81.344 16.78 81.581 13.435 81.819 10.089" style="fill:#fff"></polygon><polygon points="106.683 2.547 108.739 5.196 110.796 7.846 107.853 8.431 104.911 9.017 105.797 5.782 106.683 2.547" style="fill:#fff"></polygon><polygon points="132.54 0 134.04 3 135.54 6 132.54 6 129.54 6 131.04 3 132.54 0" style="fill:#fff"></polygon></g></g><g class="inner" style="opacity:0.4"><g><circle cx="132.54" cy="132.54" r="114" style="fill:none;stroke:#ffffff;stroke-miterlimit:10"></circle><polygon points="155.951 14.846 156.837 18.081 157.723 21.316 154.78 20.73 151.838 20.145 153.894 17.495 155.951 14.846" style="fill:#fff"></polygon><polygon points="178.462 21.674 178.7 25.02 178.938 28.366 176.166 27.218 173.394 26.07 175.928 23.872 178.462 21.674" style="fill:#fff"></polygon><polygon points="199.208 32.764 198.789 36.091 198.369 39.419 195.875 37.752 193.381 36.086 196.295 34.425 199.208 32.764" style="fill:#fff"></polygon><polygon points="217.393 47.687 216.332 50.869 215.271 54.051 213.15 51.93 211.029 49.809 214.211 48.748 217.393 47.687" style="fill:#fff"></polygon><polygon points="232.316 65.872 230.655 68.785 228.994 71.699 227.328 69.205 225.661 66.711 228.989 66.291 232.316 65.872" style="fill:#fff"></polygon><polygon points="243.406 86.618 241.208 89.152 239.01 91.686 237.862 88.914 236.714 86.142 240.06 86.38 243.406 86.618" style="fill:#fff"></polygon><polygon points="250.234 109.129 247.585 111.186 244.935 113.242 244.35 110.3 243.764 107.357 246.999 108.243 250.234 109.129" style="fill:#fff"></polygon><polygon points="252.54 132.54 249.54 134.04 246.54 135.54 246.54 132.54 246.54 129.54 249.54 131.04 252.54 132.54" style="fill:#fff"></polygon><polygon points="250.234 155.951 246.999 156.837 243.764 157.723 244.35 154.78 244.935 151.838 247.585 153.894 250.234 155.951" style="fill:#fff"></polygon><polygon points="243.406 178.462 240.06 178.7 236.714 178.938 237.862 176.166 239.01 173.394 241.208 175.928 243.406 178.462" style="fill:#fff"></polygon><polygon points="232.316 199.208 228.989 198.789 225.661 198.369 227.328 195.875 228.994 193.381 230.655 196.295 232.316 199.208" style="fill:#fff"></polygon><polygon points="217.393 217.393 214.211 216.332 211.029 215.271 213.15 213.15 215.271 211.029 216.332 214.211 217.393 217.393" style="fill:#fff"></polygon><polygon points="199.208 232.316 196.295 230.655 193.381 228.994 195.875 227.328 198.369 225.661 198.789 228.989 199.208 232.316" style="fill:#fff"></polygon><polygon points="178.462 243.406 175.928 241.208 173.394 239.01 176.166 237.862 178.938 236.714 178.7 240.06 178.462 243.406" style="fill:#fff"></polygon><polygon points="155.951 250.234 153.894 247.585 151.838 244.935 154.78 244.35 157.723 243.764 156.837 246.999 155.951 250.234" style="fill:#fff"></polygon><polygon points="132.54 252.54 131.04 249.54 129.54 246.54 132.54 246.54 135.54 246.54 134.04 249.54 132.54 252.54" style="fill:#fff"></polygon><polygon points="109.129 250.234 108.243 246.999 107.357 243.764 110.3 244.35 113.242 244.935 111.186 247.585 109.129 250.234" style="fill:#fff"></polygon><polygon points="86.618 243.406 86.38 240.06 86.142 236.714 88.914 237.862 91.686 239.01 89.152 241.208 86.618 243.406" style="fill:#fff"></polygon><polygon points="65.872 232.316 66.291 228.989 66.711 225.661 69.205 227.328 71.699 228.994 68.785 230.655 65.872 232.316" style="fill:#fff"></polygon><polygon points="47.687 217.393 48.748 214.211 49.809 211.029 51.93 213.15 54.051 215.271 50.869 216.332 47.687 217.393" style="fill:#fff"></polygon><polygon points="32.764 199.208 34.425 196.295 36.086 193.381 37.752 195.875 39.419 198.369 36.091 198.789 32.764 199.208" style="fill:#fff"></polygon><polygon points="21.674 178.462 23.872 175.928 26.07 173.394 27.218 176.166 28.366 178.938 25.02 178.7 21.674 178.462" style="fill:#fff"></polygon><polygon points="14.846 155.951 17.495 153.894 20.145 151.838 20.73 154.78 21.316 157.723 18.081 156.837 14.846 155.951" style="fill:#fff"></polygon><polygon points="12.54 132.54 15.54 131.04 18.54 129.54 18.54 132.54 18.54 135.54 15.54 134.04 12.54 132.54" style="fill:#fff"></polygon><polygon points="14.846 109.129 18.081 108.243 21.316 107.357 20.73 110.3 20.145 113.242 17.495 111.186 14.846 109.129" style="fill:#fff"></polygon><polygon points="21.674 86.618 25.02 86.38 28.366 86.142 27.218 88.914 26.07 91.686 23.872 89.152 21.674 86.618" style="fill:#fff"></polygon><polygon points="32.764 65.872 36.091 66.291 39.419 66.711 37.752 69.205 36.086 71.699 34.425 68.785 32.764 65.872" style="fill:#fff"></polygon><polygon points="47.687 47.687 50.869 48.748 54.051 49.809 51.93 51.93 49.809 54.051 48.748 50.869 47.687 47.687" style="fill:#fff"></polygon><polygon points="65.872 32.764 68.785 34.425 71.699 36.086 69.205 37.752 66.711 39.419 66.291 36.091 65.872 32.764" style="fill:#fff"></polygon><polygon points="86.618 21.674 89.152 23.872 91.686 26.07 88.914 27.218 86.142 28.366 86.38 25.02 86.618 21.674" style="fill:#fff"></polygon><polygon points="109.129 14.846 111.186 17.495 113.242 20.145 110.3 20.73 107.357 21.316 108.243 18.081 109.129 14.846" style="fill:#fff"></polygon><polygon points="132.54 12.54 134.04 15.54 135.54 18.54 132.54 18.54 129.54 18.54 131.04 15.54 132.54 12.54" style="fill:#fff"></polygon></g></g><g style="opacity:0.6"><circle cx="132.54" cy="132.54" r="53.35361" style="fill:#9e826d;stroke:#ffffff;stroke-miterlimit:10"></circle><polygon points="155.254 77.704 155.491 81.05 155.729 84.396 152.958 83.248 150.186 82.1 152.72 79.902 155.254 77.704" style="fill:#fff"></polygon><polygon points="187.376 109.826 185.178 112.36 182.98 114.894 181.832 112.122 180.684 109.351 184.03 109.589 187.376 109.826" style="fill:#fff"></polygon><polygon points="187.376 155.254 184.03 155.491 180.684 155.729 181.832 152.958 182.98 150.186 185.178 152.72 187.376 155.254" style="fill:#fff"></polygon><polygon points="155.254 187.376 152.72 185.178 150.186 182.98 152.958 181.832 155.729 180.684 155.491 184.03 155.254 187.376" style="fill:#fff"></polygon><polygon points="109.826 187.376 109.589 184.03 109.351 180.684 112.122 181.832 114.894 182.98 112.36 185.178 109.826 187.376" style="fill:#fff"></polygon><polygon points="77.704 155.254 79.902 152.72 82.1 150.186 83.248 152.958 84.396 155.729 81.05 155.491 77.704 155.254" style="fill:#fff"></polygon><polygon points="77.704 109.826 81.05 109.589 84.396 109.351 83.248 112.122 82.1 114.894 79.902 112.36 77.704 109.826" style="fill:#fff"></polygon><polygon points="109.826 77.704 112.36 79.902 114.894 82.1 112.122 83.248 109.351 84.396 109.589 81.05 109.826 77.704" style="fill:#fff"></polygon><polygon points="178.752 86.328 176.1 92.162 173.449 97.995 170.267 94.813 167.085 91.631 172.918 88.98 178.752 86.328" style="fill:#fff"></polygon><polygon points="197.894 132.54 191.894 134.79 185.894 137.04 185.894 132.54 185.894 128.04 191.894 130.29 197.894 132.54" style="fill:#fff"></polygon><polygon points="178.752 178.752 172.918 176.1 167.085 173.449 170.267 170.267 173.449 167.085 176.1 172.918 178.752 178.752" style="fill:#fff"></polygon><polygon points="132.54 197.894 130.29 191.894 128.04 185.894 132.54 185.894 137.04 185.894 134.79 191.894 132.54 197.894" style="fill:#fff"></polygon><polygon points="86.328 178.752 88.98 172.918 91.631 167.085 94.813 170.267 97.995 173.449 92.162 176.1 86.328 178.752" style="fill:#fff"></polygon><polygon points="67.186 132.54 73.186 130.29 79.186 128.04 79.186 132.54 79.186 137.04 73.186 134.79 67.186 132.54" style="fill:#fff"></polygon><polygon points="86.328 86.328 92.162 88.98 97.995 91.631 94.813 94.813 91.631 97.995 88.98 92.162 86.328 86.328" style="fill:#fff"></polygon><polygon points="132.54 67.186 134.79 73.186 137.04 79.186 132.54 79.186 128.04 79.186 130.29 73.186 132.54 67.186" style="fill:#fff"></polygon></g><path d="M136.71549,162.06969a5.33769,5.33769,0,0,0,.759-1.28323,7.31963,7.31963,0,0,0,.10371-2.13221v-12.396c-3.34643-.03878-6.61841-.01457-9.997-.01714v11.34374a11.80279,11.80279,0,0,0,.20732,3.27551,4.246,4.246,0,0,0,.55273,1.20994l-.00975-.01564c-1.29618,1.712-2.61348,3.45208-4.074,5.38126-1.35533-1.73718-2.6737-3.4268-4.06439-5.2094.7772-1.59351.58156-3.31944.58606-5.0248.00772-2.90169.00214-5.80338.00214-8.70508V146.3575h-9.66924c-.018.02046-.06718.06964-.10842.12482-.03975.05314-.10222.1125-.10222.16907-.00471,4.62773-.00439,9.25546-.00439,14.08954l.76788,1.31826c-1.32876,1.75722-2.6482,3.502-4.10574,5.42947-1.35608-1.77747-2.66234-3.48968-4.00717-5.25236.7923-1.582.6-3.24155.60052-4.87887q.006-20.00092-.01232-40.00175a9.56134,9.56134,0,0,0-.35035-2.83687c-.65913-2.08057-2.48984-2.82166-4.35281-3.4509-.57481-.19414-1.16965-.32924-1.81764-.5086v-5.37546h69.8412v5.2575c-.37692.15621-.866.36074-1.3564.56185a26.7788,26.7788,0,0,0-2.83912,1.1838,4.347,4.347,0,0,0-2.28092,3.91653c-.017.5522-.00814,1.10526-.00814,1.658q-.00054,19.89722.01253,39.79454c.00161.9423.03353,1.88149.04253,2.90072a4.44056,4.44056,0,0,0,.57974,2.12064l-.01157-.022c-1.04408,1.39744-2.62152,3.0923-4.00245,4.94069-1.39069-1.81625-2.7097-3.22783-4.099-5.04215a8.35624,8.35624,0,0,0,.58734-1.603l.01318-.06043a10.92962,10.92962,0,0,0,.10371-2.59741v-11.9c-3.26865-.10361-6.46594-.03911-9.86755-.05186v2.23849c0,3.38533-.02936,6.771.01639,10.15566a17.30022,17.30022,0,0,0,.05807,1.97225,6.23311,6.23311,0,0,0,.52778,1.71875c-1.09841,1.43869-2.52467,3.27476-3.92371,5.1073-1.39872-1.78894-2.83837-3.49772-4.29753-5.3639Zm-9.14446-51.312v12.09041h9.98616L137.55,110.75773ZM120.68,122.83881V110.7753h-9.74124v12.06351Zm33.5253.0089-.13467-12.07337h-9.63753v12.07337Zm-26.63776,16.69746h9.98134l-.04479-9.787-9.93645.06782Zm-16.66156-.005,9.75623-.02271v-9.67074s-9.72356.12482-9.75623-.00921Zm33.52187.005c1.77726,0,9.74842.03075,9.74842.03075v-9.94856c-3.28515.006-6.47109-.02079-9.74842.017Z" style="fill:#ffffff;opacity:0.8"></path></svg>