<svg width="265.08" height="265.08" xmlns="http://www.w3.org/2000/svg">

 <g>
  <title>Layer 1</title>
  <path id="svg_89" opacity="0.8" fill="#000000" d="m136.71549,162.06969a5.33769,5.33769 0 0 0 0.759,-1.28323a7.31963,7.31963 0 0 0 0.10371,-2.13221l0,-12.396c-3.34643,-0.03878 -6.61841,-0.01457 -9.997,-0.01714l0,11.34374a11.80279,11.80279 0 0 0 0.20732,3.27551a4.246,4.246 0 0 0 0.55273,1.20994l-0.00975,-0.01564c-1.29618,1.712 -2.61348,3.45208 -4.074,5.38126c-1.35533,-1.73718 -2.6737,-3.4268 -4.06439,-5.2094c0.7772,-1.59351 0.58156,-3.31944 0.58606,-5.0248c0.00772,-2.90169 0.00214,-5.80338 0.00214,-8.70508l0,-2.13914l-9.66924,0c-0.018,0.02046 -0.06718,0.06964 -0.10842,0.12482c-0.03975,0.05314 -0.10222,0.1125 -0.10222,0.16907c-0.00471,4.62773 -0.00439,9.25546 -0.00439,14.08954l0.76788,1.31826c-1.32876,1.75722 -2.6482,3.502 -4.10574,5.42947c-1.35608,-1.77747 -2.66234,-3.48968 -4.00717,-5.25236c0.7923,-1.582 0.6,-3.24155 0.60052,-4.87887q0.006,-20.00092 -0.01232,-40.00175a9.56134,9.56134 0 0 0 -0.35035,-2.83687c-0.65913,-2.08057 -2.48984,-2.82166 -4.35281,-3.4509c-0.57481,-0.19414 -1.16965,-0.32924 -1.81764,-0.5086l0,-5.37546l69.8412,0l0,5.2575c-0.37692,0.15621 -0.866,0.36074 -1.3564,0.56185a26.7788,26.7788 0 0 0 -2.83912,1.1838a4.347,4.347 0 0 0 -2.28092,3.91653c-0.017,0.5522 -0.00814,1.10526 -0.00814,1.658q-0.00054,19.89722 0.01253,39.79454c0.00161,0.9423 0.03353,1.88149 0.04253,2.90072a4.44056,4.44056 0 0 0 0.57974,2.12064l-0.01157,-0.022c-1.04408,1.39744 -2.62152,3.0923 -4.00245,4.94069c-1.39069,-1.81625 -2.7097,-3.22783 -4.099,-5.04215a8.35624,8.35624 0 0 0 0.58734,-1.603l0.01318,-0.06043a10.92962,10.92962 0 0 0 0.10371,-2.59741l0,-11.9c-3.26865,-0.10361 -6.46594,-0.03911 -9.86755,-0.05186l0,2.23849c0,3.38533 -0.02936,6.771 0.01639,10.15566a17.30022,17.30022 0 0 0 0.05807,1.97225a6.23311,6.23311 0 0 0 0.52778,1.71875c-1.09841,1.43869 -2.52467,3.27476 -3.92371,5.1073c-1.39872,-1.78894 -2.83837,-3.49772 -4.29753,-5.3639l0,-0.00013zm-9.14446,-51.312l0,12.09041l9.98616,0l-0.00719,-12.09037l-9.97897,-0.00004zm-6.89103,12.08112l0,-12.06351l-9.74124,0l0,12.06351l9.74124,0zm33.5253,0.0089l-0.13467,-12.07337l-9.63753,0l0,12.07337l9.7722,0zm-26.63776,16.69746l9.98134,0l-0.04479,-9.787l-9.93645,0.06782l-0.0001,9.71918zm-16.66156,-0.005l9.75623,-0.02271l0,-9.67074s-9.72356,0.12482 -9.75623,-0.00921l0,9.70266zm33.52187,0.005c1.77726,0 9.74842,0.03075 9.74842,0.03075l0,-9.94856c-3.28515,0.006 -6.47109,-0.02079 -9.74842,0.017l0,9.90081z"/>
 </g>
</svg>